<?xml version="1.0" standalone="no"?>
<!DOCTYPE svg PUBLIC "-//W3C//DTD SVG 20010904//EN"
 "http://www.w3.org/TR/2001/REC-SVG-20010904/DTD/svg10.dtd">
<svg version="1.0" xmlns="http://www.w3.org/2000/svg"
 width="225.000000pt" height="225.000000pt" viewBox="0 0 225.000000 225.000000"
 preserveAspectRatio="xMidYMid meet">
<metadata>
Created by potrace 1.14, written by Peter Selinger 2001-2017
</metadata>
<g transform="translate(0.000000,225.000000) scale(0.100000,-0.100000)"
fill="#000000" stroke="none">
<path d="M662 2024 c-151 -66 -455 -631 -527 -979 -27 -134 -20 -279 18 -348
30 -55 79 -82 147 -81 67 0 107 20 167 82 65 69 133 189 193 342 29 74 55 137
57 139 7 9 16 -10 53 -111 69 -187 130 -298 209 -375 185 -180 368 -59 531
352 25 64 50 117 54 118 5 1 32 -54 61 -123 60 -147 84 -195 135 -270 76 -112
158 -165 242 -157 63 5 113 41 142 100 63 124 8 414 -138 736 -127 280 -252
466 -370 553 -60 43 -128 34 -195 -26 -57 -52 -253 -360 -275 -433 -12 -38
-29 -26 -66 45 -58 114 -178 294 -236 355 -52 55 -120 97 -154 96 -8 0 -30 -7
-48 -15z"/>
</g>
</svg>
